# xmcd CD database file
#
# Track frame offsets:
#	150
#	19053
#	40438
#	59831
#	77744
#	90741
#	109744
#	127119
#	136052
#	152155
#
# Disc length: 2267 seconds
#
# Revision: 0
# Processed by: cddbd v1.5.1PL0 Copyright (c) Steve Scherf et al.
# Submitted via: CDex 1.51
#
DISCID=8708d90a
DTITLE=Daiso - Navidad Latina
DYEAR=1900
DGENRE=Latin
TTITLE0=Navidad Latina
TTITLE1=Latin Christmas Mix
TTITLE2=Amazing Grace
TTITLE3=Hark! The Herald Angels Sing
TTITLE4=Silent Night~Noche Dez Paz
TTITLE5=Ave Maria
TTITLE6=Greensleeves~A Lo Gypsy
TTITLE7=Jingle Bells~Navidad! Llego Navidad
TTITLE8=We Wish You A Merry X'mas
TTITLE9=X'mas From The Coffee Land
EXTD=
EXTT0=
EXTT1=
EXTT2=
EXTT3=
EXTT4=
EXTT5=
EXTT6=
EXTT7=
EXTT8=
EXTT9=
PLAYORDER=
